<?xml version="1.0" encoding="UTF-8"?>
<svg id="Layer_2" data-name="Layer 2" xmlns="http://www.w3.org/2000/svg" viewBox="0 0 161.64 159.31">
  <defs>
    <style>
      .cls-1 {
        fill: #fff;
      }
    </style>
  </defs>
  <g id="Layer_1-2" data-name="Layer 1">
    <g id="SY-Round">
      <g id="SY-Round-2">
        <path class="cls-1" d="M82.48,159.31c-.46-.21-.69-.37-.61-.5,3.68-6.57,5.8-13.44,6.94-20.81.68-4.39.77-8.51,1.04-12.97.71-11.81,5.5-22.59,12.86-31.72,10.93-13.55,26.19-20.56,43.25-23.01-7.89-.34-15.41,1.48-22.57,4.3-16.72,6.58-29.25,19.77-35.27,37.01-1.86-10.34-6.22-19.06-13.18-26.46-5.17-5.49-10.86-10.11-17.13-14.33l-10.91-6.86c-3.89-2.45-7.41-5.04-10.9-8.04-4.62-4.41-7.71-9.33-5.96-15.95-6.1,8.07-1.72,16.15,5.05,22.11,3.16,2.79,6.42,5.17,9.88,7.6,7.76,5.45,14.26,9.86,20.9,16.74,9.87,10.21,15.85,23.42,16.85,37.6,1.2,11.67-1.19,24.73-6.49,35.21C37.06,156.84,5.47,127.84.5,88.98c6.89-2.11,14.16-2.11,21.24-.05,3.5,23.18,21.34,41.81,44.42,46.43,2.31-14.39-1.5-29.04-10.67-40.06-10.88-13.09-27.28-20.25-44.2-20.02-3.91.23-7.47.59-11.29,1.71C1.32,35.59,35.4,1.82,76.71,0v62.3s-18.01-13.32-18.01-13.32c-1.24-1.59-1.52-3.42-1.72-5.42l-.04-22.49c-7.79,2.79-23.55,12.32-23.44,21.52.04,3.27,1.62,6.24,3.76,8.62,3.15,3.51,6.74,6.25,10.74,8.76l15.03,9.44c6.53,4.1,14.35,10.52,19.16,16.61,3.11-4.25,6.18-8.17,9.75-11.93,11.27-11.37,26.7-20.9,42.5-24.95-5.93-13.09-16.59-23.17-30.37-28.24l-.05,22.65c0,1.85-.49,3.53-1.37,5.09l-9.51,7.14-8.74,6.49V0c31.22,1.08,59.28,20.57,71.42,49.2,3.31,8.02,5.28,16.41,5.82,25.08-3.84-.62-7.35-1.22-11.21-1.13-28.56.68-53.3,21.96-55.43,51-.14,3.86.05,7.47.5,11.25,22.97-4.57,40.95-22.87,44.59-46.42,6.62-2.15,13.9-2.01,20.85-.35.23.05.47.37.43.68-1.88,15.22-8.37,29.64-18.3,41.37-15.14,17.86-37.05,28.18-60.59,28.61Z"/>
      </g>
    </g>
  </g>
</svg>